<mxfile host="app.diagrams.net" modified="2022-01-30T07:25:47.052Z" agent="5.0 (Macintosh; Intel Mac OS X 10_15_7) AppleWebKit/537.36 (KHTML, like Gecko) Chrome/97.0.4692.99 Safari/537.36" etag="-z5oBNhQo-u0bx4JxQSq" version="16.4.6" type="github" pages="2">
  <diagram id="6SXnZI-qTnY1iaHghpJE" name="Logical DFD">
    <mxGraphModel dx="1747" dy="1222" grid="1" gridSize="10" guides="1" tooltips="1" connect="1" arrows="1" fold="1" page="1" pageScale="1" pageWidth="850" pageHeight="1100" math="0" shadow="0">
      <root>
        <mxCell id="eumCQr6r2jkz_WzBpZGH-0" />
        <mxCell id="eumCQr6r2jkz_WzBpZGH-1" parent="eumCQr6r2jkz_WzBpZGH-0" />
        <UserObject label="User" lucidchartObjectId="9RFOUi4ip9jR" id="eumCQr6r2jkz_WzBpZGH-35">
          <mxCell style="html=1;overflow=block;blockSpacing=1;whiteSpace=wrap;fontSize=16.7;fontColor=#333333;spacing=3.8;strokeColor=#5e5e5e;strokeOpacity=100;rounded=1;absoluteArcSize=1;arcSize=9;strokeWidth=2.3;" vertex="1" parent="eumCQr6r2jkz_WzBpZGH-1">
            <mxGeometry x="280" y="550" width="90" height="90" as="geometry" />
          </mxCell>
        </UserObject>
        <UserObject label="Sign Up" lucidchartObjectId="vSFOk3k_ELr3" id="eumCQr6r2jkz_WzBpZGH-36">
          <mxCell style="html=1;overflow=block;blockSpacing=1;whiteSpace=wrap;fontSize=16.7;fontColor=#333333;spacing=9;strokeColor=#5e5e5e;strokeOpacity=100;rounded=1;absoluteArcSize=1;arcSize=9;strokeWidth=2.3;" vertex="1" parent="eumCQr6r2jkz_WzBpZGH-1">
            <mxGeometry x="430" y="385" width="120" height="90" as="geometry" />
          </mxCell>
        </UserObject>
        <UserObject label="" lucidchartObjectId="OSFOrlg5D.cd" id="eumCQr6r2jkz_WzBpZGH-37">
          <mxCell style="html=1;jettySize=18;whiteSpace=wrap;fontSize=13;strokeColor=#5E5E5E;strokeWidth=1.5;rounded=1;arcSize=12;edgeStyle=orthogonalEdgeStyle;startArrow=none;endArrow=block;endFill=1;exitX=0.5;exitY=-0.012;exitPerimeter=0;entryX=-0.009;entryY=0.5;entryPerimeter=0;" edge="1" parent="eumCQr6r2jkz_WzBpZGH-1" source="eumCQr6r2jkz_WzBpZGH-35" target="eumCQr6r2jkz_WzBpZGH-36">
            <mxGeometry width="100" height="100" relative="1" as="geometry">
              <Array as="points" />
            </mxGeometry>
          </mxCell>
        </UserObject>
        <UserObject label="Success" lucidchartObjectId="WSFOOeL1VOg4" id="eumCQr6r2jkz_WzBpZGH-38">
          <mxCell style="html=1;overflow=block;blockSpacing=1;whiteSpace=wrap;rhombus;fontSize=16.7;fontColor=#333333;spacing=3.8;strokeColor=#5e5e5e;strokeOpacity=100;rounded=1;absoluteArcSize=1;arcSize=9;strokeWidth=2.3;" vertex="1" parent="eumCQr6r2jkz_WzBpZGH-1">
            <mxGeometry x="610" y="385" width="120" height="90" as="geometry" />
          </mxCell>
        </UserObject>
        <UserObject label="" lucidchartObjectId="7SFOYf6FOEu6" id="eumCQr6r2jkz_WzBpZGH-39">
          <mxCell style="html=1;jettySize=18;whiteSpace=wrap;fontSize=13;strokeColor=#5E5E5E;strokeWidth=1.5;rounded=1;arcSize=12;edgeStyle=orthogonalEdgeStyle;startArrow=none;endArrow=block;endFill=1;exitX=1.009;exitY=0.5;exitPerimeter=0;entryX=0.009;entryY=0.5;entryPerimeter=0;" edge="1" parent="eumCQr6r2jkz_WzBpZGH-1" source="eumCQr6r2jkz_WzBpZGH-36" target="eumCQr6r2jkz_WzBpZGH-38">
            <mxGeometry width="100" height="100" relative="1" as="geometry">
              <Array as="points" />
            </mxGeometry>
          </mxCell>
        </UserObject>
        <UserObject label="" lucidchartObjectId=".SFOLQY30yqv" id="eumCQr6r2jkz_WzBpZGH-40">
          <mxCell style="html=1;jettySize=18;whiteSpace=wrap;fontSize=13.3;fontColor=#333333;fontStyle=1;strokeColor=#5E5E5E;strokeWidth=1.5;rounded=1;arcSize=12;edgeStyle=orthogonalEdgeStyle;startArrow=none;endArrow=block;endFill=1;exitX=0.991;exitY=0.5;exitPerimeter=0;entryX=0.5;entryY=1.013;entryPerimeter=0;" edge="1" parent="eumCQr6r2jkz_WzBpZGH-1" source="eumCQr6r2jkz_WzBpZGH-38" target="eumCQr6r2jkz_WzBpZGH-42">
            <mxGeometry width="100" height="100" relative="1" as="geometry">
              <Array as="points" />
            </mxGeometry>
          </mxCell>
        </UserObject>
        <mxCell id="eumCQr6r2jkz_WzBpZGH-41" value="Yes" style="text;html=1;resizable=0;labelBackgroundColor=default;align=center;verticalAlign=middle;fontStyle=1;fontColor=#333333;fontSize=13.3;" vertex="1" parent="eumCQr6r2jkz_WzBpZGH-40">
          <mxGeometry relative="1" as="geometry" />
        </mxCell>
        <UserObject label="Home" lucidchartObjectId="NTFOyW.Me_-B" id="eumCQr6r2jkz_WzBpZGH-42">
          <mxCell style="html=1;overflow=block;blockSpacing=1;whiteSpace=wrap;shape=trapezoid;perimeter=trapezoidPerimeter;anchorPointDirection=0;flipV=1;fontSize=16.7;fontColor=#333333;spacing=3.8;strokeColor=#5e5e5e;strokeOpacity=100;rounded=1;absoluteArcSize=1;arcSize=9;strokeWidth=2.3;" vertex="1" parent="eumCQr6r2jkz_WzBpZGH-1">
            <mxGeometry x="700" y="550" width="120" height="90" as="geometry" />
          </mxCell>
        </UserObject>
        <UserObject label="Log in" lucidchartObjectId="7TFOUkIdsTuf" id="eumCQr6r2jkz_WzBpZGH-43">
          <mxCell style="html=1;overflow=block;blockSpacing=1;whiteSpace=wrap;fontSize=16.7;fontColor=#333333;spacing=9;strokeColor=#5e5e5e;strokeOpacity=100;rounded=1;absoluteArcSize=1;arcSize=9;strokeWidth=2.3;" vertex="1" parent="eumCQr6r2jkz_WzBpZGH-1">
            <mxGeometry x="430" y="685" width="120" height="90" as="geometry" />
          </mxCell>
        </UserObject>
        <UserObject label="" lucidchartObjectId="-zHOaPiV_b.J" id="eumCQr6r2jkz_WzBpZGH-44">
          <mxCell style="html=1;jettySize=18;whiteSpace=wrap;fontSize=13;strokeColor=#5E5E5E;strokeWidth=1.5;rounded=1;arcSize=12;edgeStyle=orthogonalEdgeStyle;startArrow=none;endArrow=block;endFill=1;exitX=0.5;exitY=1.013;exitPerimeter=0;entryX=-0.009;entryY=0.5;entryPerimeter=0;" edge="1" parent="eumCQr6r2jkz_WzBpZGH-1" source="eumCQr6r2jkz_WzBpZGH-35" target="eumCQr6r2jkz_WzBpZGH-43">
            <mxGeometry width="100" height="100" relative="1" as="geometry">
              <Array as="points" />
            </mxGeometry>
          </mxCell>
        </UserObject>
        <UserObject label="" lucidchartObjectId="gAHOTCAfJh69" id="eumCQr6r2jkz_WzBpZGH-45">
          <mxCell style="html=1;jettySize=18;whiteSpace=wrap;fontSize=13;strokeColor=#5E5E5E;strokeWidth=1.5;rounded=1;arcSize=12;edgeStyle=orthogonalEdgeStyle;startArrow=none;endArrow=block;endFill=1;exitX=1.009;exitY=0.5;exitPerimeter=0;entryX=0.009;entryY=0.5;entryPerimeter=0;" edge="1" parent="eumCQr6r2jkz_WzBpZGH-1" source="eumCQr6r2jkz_WzBpZGH-43" target="eumCQr6r2jkz_WzBpZGH-46">
            <mxGeometry width="100" height="100" relative="1" as="geometry">
              <Array as="points" />
            </mxGeometry>
          </mxCell>
        </UserObject>
        <UserObject label="Success" lucidchartObjectId="iAHOA0U8MG2C" id="eumCQr6r2jkz_WzBpZGH-46">
          <mxCell style="html=1;overflow=block;blockSpacing=1;whiteSpace=wrap;rhombus;fontSize=16.7;fontColor=#333333;spacing=3.8;strokeColor=#5e5e5e;strokeOpacity=100;rounded=1;absoluteArcSize=1;arcSize=9;strokeWidth=2.3;" vertex="1" parent="eumCQr6r2jkz_WzBpZGH-1">
            <mxGeometry x="610" y="685" width="120" height="90" as="geometry" />
          </mxCell>
        </UserObject>
        <UserObject label="" lucidchartObjectId="wAHOtQ~-wkWr" id="eumCQr6r2jkz_WzBpZGH-47">
          <mxCell style="html=1;jettySize=18;whiteSpace=wrap;fontSize=13.3;fontColor=#333333;fontStyle=1;strokeColor=#5E5E5E;strokeWidth=1.5;rounded=1;arcSize=12;edgeStyle=orthogonalEdgeStyle;startArrow=none;endArrow=block;endFill=1;exitX=0.991;exitY=0.5;exitPerimeter=0;entryX=0.491;entryY=-0.0129999999999999;entryPerimeter=0;" edge="1" parent="eumCQr6r2jkz_WzBpZGH-1" source="eumCQr6r2jkz_WzBpZGH-46" target="eumCQr6r2jkz_WzBpZGH-42">
            <mxGeometry width="100" height="100" relative="1" as="geometry">
              <Array as="points" />
            </mxGeometry>
          </mxCell>
        </UserObject>
        <mxCell id="eumCQr6r2jkz_WzBpZGH-48" value="Yes" style="text;html=1;resizable=0;labelBackgroundColor=default;align=center;verticalAlign=middle;fontStyle=1;fontColor=#333333;fontSize=13.3;" vertex="1" parent="eumCQr6r2jkz_WzBpZGH-47">
          <mxGeometry relative="1" as="geometry" />
        </mxCell>
        <UserObject label="" lucidchartObjectId="HAHO-6UQmoMh" id="eumCQr6r2jkz_WzBpZGH-49">
          <mxCell style="html=1;jettySize=18;whiteSpace=wrap;fontSize=13.3;fontColor=#333333;fontStyle=1;strokeColor=#5E5E5E;strokeWidth=1.5;rounded=1;arcSize=12;edgeStyle=orthogonalEdgeStyle;startArrow=none;endArrow=block;endFill=1;exitX=0.5;exitY=0.006;exitPerimeter=0;entryX=0.5;entryY=1.019;entryPerimeter=0;" edge="1" parent="eumCQr6r2jkz_WzBpZGH-1" source="eumCQr6r2jkz_WzBpZGH-46" target="eumCQr6r2jkz_WzBpZGH-51">
            <mxGeometry width="100" height="100" relative="1" as="geometry">
              <Array as="points" />
            </mxGeometry>
          </mxCell>
        </UserObject>
        <mxCell id="eumCQr6r2jkz_WzBpZGH-50" value="No" style="text;html=1;resizable=0;labelBackgroundColor=default;align=center;verticalAlign=middle;fontStyle=1;fontColor=#333333;fontSize=13.3;" vertex="1" parent="eumCQr6r2jkz_WzBpZGH-49">
          <mxGeometry relative="1" as="geometry" />
        </mxCell>
        <UserObject label="Message" lucidchartObjectId="6AHOAWGqtXX7" id="eumCQr6r2jkz_WzBpZGH-51">
          <mxCell style="html=1;overflow=block;blockSpacing=1;whiteSpace=wrap;rounded=1;arcSize=50;fontSize=16.7;fontColor=#333333;spacing=3.8;strokeColor=#5e5e5e;strokeOpacity=100;strokeWidth=2.3;" vertex="1" parent="eumCQr6r2jkz_WzBpZGH-1">
            <mxGeometry x="445" y="550" width="120" height="60" as="geometry" />
          </mxCell>
        </UserObject>
        <UserObject label="" lucidchartObjectId="bBHONOr1l-kQ" id="eumCQr6r2jkz_WzBpZGH-52">
          <mxCell style="html=1;jettySize=18;whiteSpace=wrap;fontSize=13.3;fontColor=#333333;fontStyle=1;strokeColor=#5E5E5E;strokeWidth=1.5;rounded=1;arcSize=12;edgeStyle=orthogonalEdgeStyle;startArrow=none;endArrow=block;endFill=1;exitX=0.5;exitY=0.994;exitPerimeter=0;entryX=0.5;entryY=-0.019;entryPerimeter=0;" edge="1" parent="eumCQr6r2jkz_WzBpZGH-1" source="eumCQr6r2jkz_WzBpZGH-38" target="eumCQr6r2jkz_WzBpZGH-51">
            <mxGeometry width="100" height="100" relative="1" as="geometry">
              <Array as="points" />
            </mxGeometry>
          </mxCell>
        </UserObject>
        <mxCell id="eumCQr6r2jkz_WzBpZGH-53" value="No" style="text;html=1;resizable=0;labelBackgroundColor=default;align=center;verticalAlign=middle;fontStyle=1;fontColor=#333333;fontSize=13.3;" vertex="1" parent="eumCQr6r2jkz_WzBpZGH-52">
          <mxGeometry relative="1" as="geometry" />
        </mxCell>
        <UserObject label="" lucidchartObjectId="jBHOk2wtlx6R" id="eumCQr6r2jkz_WzBpZGH-54">
          <mxCell style="html=1;jettySize=18;whiteSpace=wrap;fontSize=13;strokeColor=#5E5E5E;strokeWidth=1.5;rounded=1;arcSize=12;edgeStyle=orthogonalEdgeStyle;startArrow=none;endArrow=block;endFill=1;exitX=0.91;exitY=0.5;exitPerimeter=0;entryX=-0.009;entryY=0.5;entryPerimeter=0;" edge="1" parent="eumCQr6r2jkz_WzBpZGH-1" source="eumCQr6r2jkz_WzBpZGH-42" target="eumCQr6r2jkz_WzBpZGH-55">
            <mxGeometry width="100" height="100" relative="1" as="geometry">
              <Array as="points" />
            </mxGeometry>
          </mxCell>
        </UserObject>
        <UserObject label="Record" lucidchartObjectId="nBHO9~qcEh6e" id="eumCQr6r2jkz_WzBpZGH-55">
          <mxCell style="html=1;overflow=block;blockSpacing=1;whiteSpace=wrap;fontSize=16.7;fontColor=#333333;spacing=9;strokeColor=#5e5e5e;strokeOpacity=100;rounded=1;absoluteArcSize=1;arcSize=9;strokeWidth=2.3;" vertex="1" parent="eumCQr6r2jkz_WzBpZGH-1">
            <mxGeometry x="847" y="550" width="120" height="90" as="geometry" />
          </mxCell>
        </UserObject>
        <UserObject label="Select (Income or Expanse)" lucidchartObjectId="xCHOSkhSnpdO" id="eumCQr6r2jkz_WzBpZGH-56">
          <mxCell style="html=1;overflow=block;blockSpacing=1;whiteSpace=wrap;rhombus;fontSize=16.7;fontColor=#333333;spacing=3.8;strokeColor=#5e5e5e;strokeOpacity=100;rounded=1;absoluteArcSize=1;arcSize=9;strokeWidth=2.3;" vertex="1" parent="eumCQr6r2jkz_WzBpZGH-1">
            <mxGeometry x="940" y="310" width="165" height="120" as="geometry" />
          </mxCell>
        </UserObject>
        <UserObject label="" lucidchartObjectId="KCHOS3v.H7sL" id="eumCQr6r2jkz_WzBpZGH-57">
          <mxCell style="html=1;jettySize=18;whiteSpace=wrap;fontSize=13;strokeColor=#5E5E5E;strokeWidth=1.5;rounded=1;arcSize=12;edgeStyle=orthogonalEdgeStyle;startArrow=none;endArrow=block;endFill=1;exitX=0.5;exitY=-0.012;exitPerimeter=0;entryX=0.007;entryY=0.5;entryPerimeter=0;" edge="1" parent="eumCQr6r2jkz_WzBpZGH-1" source="eumCQr6r2jkz_WzBpZGH-55" target="eumCQr6r2jkz_WzBpZGH-56">
            <mxGeometry width="100" height="100" relative="1" as="geometry">
              <Array as="points" />
            </mxGeometry>
          </mxCell>
        </UserObject>
        <UserObject label="Input data" lucidchartObjectId=".FHOX9JcPf.I" id="eumCQr6r2jkz_WzBpZGH-58">
          <mxCell style="html=1;overflow=block;blockSpacing=1;whiteSpace=wrap;shape=document;boundedLbl=1;fontSize=16.7;fontColor=#333333;spacing=3.8;strokeColor=#5e5e5e;strokeOpacity=100;rounded=1;absoluteArcSize=1;arcSize=9;strokeWidth=2.3;" vertex="1" parent="eumCQr6r2jkz_WzBpZGH-1">
            <mxGeometry x="1135" y="325" width="120" height="90" as="geometry" />
          </mxCell>
        </UserObject>
        <UserObject label="" lucidchartObjectId="lGHO0y9NOf_f" id="eumCQr6r2jkz_WzBpZGH-59">
          <mxCell style="html=1;jettySize=18;whiteSpace=wrap;fontSize=13;strokeColor=#5E5E5E;strokeWidth=1.5;rounded=1;arcSize=12;edgeStyle=orthogonalEdgeStyle;startArrow=none;endArrow=block;endFill=1;exitX=0.993;exitY=0.5;exitPerimeter=0;entryX=-0.009;entryY=0.5;entryPerimeter=0;" edge="1" parent="eumCQr6r2jkz_WzBpZGH-1" source="eumCQr6r2jkz_WzBpZGH-56" target="eumCQr6r2jkz_WzBpZGH-58">
            <mxGeometry width="100" height="100" relative="1" as="geometry">
              <Array as="points" />
            </mxGeometry>
          </mxCell>
        </UserObject>
        <UserObject label="If Save" lucidchartObjectId="pGHO~2EOPmHi" id="eumCQr6r2jkz_WzBpZGH-60">
          <mxCell style="html=1;overflow=block;blockSpacing=1;whiteSpace=wrap;rhombus;fontSize=16.7;fontColor=#333333;spacing=3.8;strokeColor=#5e5e5e;strokeOpacity=100;rounded=1;absoluteArcSize=1;arcSize=9;strokeWidth=2.3;" vertex="1" parent="eumCQr6r2jkz_WzBpZGH-1">
            <mxGeometry x="1195" y="460" width="165" height="120" as="geometry" />
          </mxCell>
        </UserObject>
        <UserObject label="" lucidchartObjectId="MHHO29OI4gCF" id="eumCQr6r2jkz_WzBpZGH-61">
          <mxCell style="html=1;jettySize=18;whiteSpace=wrap;fontSize=13;strokeColor=#5E5E5E;strokeWidth=1.5;rounded=1;arcSize=12;edgeStyle=orthogonalEdgeStyle;startArrow=none;endArrow=block;endFill=1;exitX=1.009;exitY=0.503;exitPerimeter=0;entryX=0.5;entryY=0.004;entryPerimeter=0;" edge="1" parent="eumCQr6r2jkz_WzBpZGH-1" source="eumCQr6r2jkz_WzBpZGH-58" target="eumCQr6r2jkz_WzBpZGH-60">
            <mxGeometry width="100" height="100" relative="1" as="geometry">
              <Array as="points" />
            </mxGeometry>
          </mxCell>
        </UserObject>
        <UserObject label="Database" lucidchartObjectId="RHHOlJo~aNF2" id="eumCQr6r2jkz_WzBpZGH-62">
          <mxCell style="html=1;overflow=block;blockSpacing=1;whiteSpace=wrap;shape=cylinder3;size=4;anchorPointDirection=0;boundedLbl=1;fontSize=16.7;fontColor=#333333;spacing=3.8;strokeColor=#5e5e5e;strokeOpacity=100;rounded=1;absoluteArcSize=1;arcSize=9;strokeWidth=2.3;" vertex="1" parent="eumCQr6r2jkz_WzBpZGH-1">
            <mxGeometry x="1420" y="475" width="90" height="90" as="geometry" />
          </mxCell>
        </UserObject>
        <UserObject label="" lucidchartObjectId="THHOekW6iWrG" id="eumCQr6r2jkz_WzBpZGH-63">
          <mxCell style="html=1;jettySize=18;whiteSpace=wrap;fontSize=13.3;fontColor=#333333;fontStyle=1;strokeColor=#5E5E5E;strokeWidth=1.5;rounded=1;arcSize=12;edgeStyle=orthogonalEdgeStyle;startArrow=none;endArrow=block;endFill=1;exitX=0.993;exitY=0.5;exitPerimeter=0;entryX=-0.012;entryY=0.5;entryPerimeter=0;" edge="1" parent="eumCQr6r2jkz_WzBpZGH-1" source="eumCQr6r2jkz_WzBpZGH-60" target="eumCQr6r2jkz_WzBpZGH-62">
            <mxGeometry width="100" height="100" relative="1" as="geometry">
              <Array as="points" />
            </mxGeometry>
          </mxCell>
        </UserObject>
        <mxCell id="eumCQr6r2jkz_WzBpZGH-64" value="Yes" style="text;html=1;resizable=0;labelBackgroundColor=default;align=center;verticalAlign=middle;fontStyle=1;fontColor=#333333;fontSize=13.3;" vertex="1" parent="eumCQr6r2jkz_WzBpZGH-63">
          <mxGeometry relative="1" as="geometry" />
        </mxCell>
        <UserObject label="" lucidchartObjectId="AIHO6mP4pVLV" id="eumCQr6r2jkz_WzBpZGH-65">
          <mxCell style="html=1;jettySize=18;whiteSpace=wrap;fontSize=13.3;fontColor=#333333;fontStyle=1;strokeColor=#5E5E5E;strokeWidth=1.5;rounded=1;arcSize=12;edgeStyle=orthogonalEdgeStyle;startArrow=none;endArrow=block;endFill=1;exitX=0.5;exitY=0.996;exitPerimeter=0;entryX=0.748;entryY=-0.0129999999999999;entryPerimeter=0;" edge="1" parent="eumCQr6r2jkz_WzBpZGH-1" source="eumCQr6r2jkz_WzBpZGH-60" target="eumCQr6r2jkz_WzBpZGH-42">
            <mxGeometry width="100" height="100" relative="1" as="geometry">
              <Array as="points" />
            </mxGeometry>
          </mxCell>
        </UserObject>
        <mxCell id="eumCQr6r2jkz_WzBpZGH-66" value="No" style="text;html=1;resizable=0;labelBackgroundColor=default;align=center;verticalAlign=middle;fontStyle=1;fontColor=#333333;fontSize=13.3;" vertex="1" parent="eumCQr6r2jkz_WzBpZGH-65">
          <mxGeometry relative="1" as="geometry" />
        </mxCell>
        <UserObject label="" lucidchartObjectId="iJHO6cbo8qLZ" id="eumCQr6r2jkz_WzBpZGH-67">
          <mxCell style="html=1;jettySize=18;whiteSpace=wrap;fontSize=13;strokeColor=#5E5E5E;strokeWidth=1.5;rounded=1;arcSize=12;edgeStyle=orthogonalEdgeStyle;startArrow=none;endArrow=block;endFill=1;exitX=0.5;exitY=1.013;exitPerimeter=0;" edge="1" parent="eumCQr6r2jkz_WzBpZGH-1" source="eumCQr6r2jkz_WzBpZGH-62">
            <mxGeometry width="100" height="100" relative="1" as="geometry">
              <Array as="points" />
              <mxPoint x="1278" y="644" as="targetPoint" />
            </mxGeometry>
          </mxCell>
        </UserObject>
      </root>
    </mxGraphModel>
  </diagram>
  <diagram id="pKSGYbflzFa-KHm6k43N" name="Physical DFD">
    <mxGraphModel dx="786" dy="550" grid="1" gridSize="10" guides="1" tooltips="1" connect="1" arrows="1" fold="1" page="1" pageScale="1" pageWidth="850" pageHeight="1100" math="0" shadow="0">
      <root>
        <mxCell id="0" />
        <mxCell id="1" parent="0" />
        <UserObject label="User" lucidchartObjectId="dMTONoezcspk" id="SzY6kasAF2Rzf1Wxw6PO-1">
          <mxCell style="html=1;overflow=block;blockSpacing=1;whiteSpace=wrap;fontSize=16.7;fontColor=#333333;spacing=3.8;strokeColor=#5e5e5e;strokeOpacity=100;fillOpacity=100;rounded=1;absoluteArcSize=1;arcSize=9;fillColor=#e5e5e5;strokeWidth=2.3;" parent="1" vertex="1">
            <mxGeometry x="215" y="705" width="90" height="90" as="geometry" />
          </mxCell>
        </UserObject>
        <UserObject label="Sign Up" lucidchartObjectId="dMTOpuN3.NaS" id="SzY6kasAF2Rzf1Wxw6PO-2">
          <mxCell style="html=1;overflow=block;blockSpacing=1;whiteSpace=wrap;fontSize=16.7;fontColor=#333333;spacing=9;strokeColor=#5e5e5e;strokeOpacity=100;rounded=1;absoluteArcSize=1;arcSize=9;strokeWidth=2.3;" parent="1" vertex="1">
            <mxGeometry x="200" y="540" width="120" height="90" as="geometry" />
          </mxCell>
        </UserObject>
        <UserObject label="Log in" lucidchartObjectId="dMTO7BlySxcr" id="SzY6kasAF2Rzf1Wxw6PO-3">
          <mxCell style="html=1;overflow=block;blockSpacing=1;whiteSpace=wrap;fontSize=16.7;fontColor=#333333;spacing=9;strokeColor=#5e5e5e;strokeOpacity=100;rounded=1;absoluteArcSize=1;arcSize=9;strokeWidth=2.3;" parent="1" vertex="1">
            <mxGeometry x="350" y="705" width="120" height="90" as="geometry" />
          </mxCell>
        </UserObject>
        <UserObject label="" lucidchartObjectId="dMTOoeIQq-HY" id="SzY6kasAF2Rzf1Wxw6PO-4">
          <mxCell style="html=1;jettySize=18;whiteSpace=wrap;fontSize=13;strokeColor=#5E5E5E;strokeWidth=1.5;rounded=1;arcSize=12;edgeStyle=orthogonalEdgeStyle;startArrow=none;endArrow=block;endFill=1;exitX=1.013;exitY=0.5;exitPerimeter=0;entryX=-0.009;entryY=0.5;entryPerimeter=0;" parent="1" source="SzY6kasAF2Rzf1Wxw6PO-1" target="SzY6kasAF2Rzf1Wxw6PO-3" edge="1">
            <mxGeometry width="100" height="100" relative="1" as="geometry">
              <Array as="points" />
            </mxGeometry>
          </mxCell>
        </UserObject>
        <UserObject label="Success&#xa;Message" lucidchartObjectId="dMTO0t~vLbbA" id="SzY6kasAF2Rzf1Wxw6PO-5">
          <mxCell style="html=1;overflow=block;blockSpacing=1;whiteSpace=wrap;rhombus;fontSize=16.7;fontColor=#333333;spacing=3.8;strokeColor=#5e5e5e;strokeOpacity=100;rounded=1;absoluteArcSize=1;arcSize=9;strokeWidth=2.3;" parent="1" vertex="1">
            <mxGeometry x="515" y="570" width="120" height="90" as="geometry" />
          </mxCell>
        </UserObject>
        <UserObject label="" lucidchartObjectId="dMTOM1YPP6Lx" id="SzY6kasAF2Rzf1Wxw6PO-6">
          <mxCell style="html=1;jettySize=18;whiteSpace=wrap;fontSize=13;strokeColor=#5E5E5E;strokeWidth=1.5;rounded=1;arcSize=12;edgeStyle=orthogonalEdgeStyle;startArrow=none;endArrow=block;endFill=1;exitX=0.5;exitY=1.013;exitPerimeter=0;entryX=0.5;entryY=-0.012;entryPerimeter=0;" parent="1" source="SzY6kasAF2Rzf1Wxw6PO-27" target="SzY6kasAF2Rzf1Wxw6PO-7" edge="1">
            <mxGeometry width="100" height="100" relative="1" as="geometry">
              <Array as="points" />
            </mxGeometry>
          </mxCell>
        </UserObject>
        <UserObject label="Record Button" lucidchartObjectId="dMTOyBk2cu4H" id="SzY6kasAF2Rzf1Wxw6PO-7">
          <mxCell style="html=1;overflow=block;blockSpacing=1;whiteSpace=wrap;fontSize=16.7;fontColor=#333333;spacing=9;strokeColor=#5e5e5e;strokeOpacity=100;fillOpacity=100;rounded=1;absoluteArcSize=1;arcSize=9;fillColor=#99d2f2;strokeWidth=2.3;" parent="1" vertex="1">
            <mxGeometry x="665" y="795" width="120" height="90" as="geometry" />
          </mxCell>
        </UserObject>
        <UserObject label="Select (Income or Expanse)" lucidchartObjectId="dMTOhnAkpPno" id="SzY6kasAF2Rzf1Wxw6PO-8">
          <mxCell style="html=1;overflow=block;blockSpacing=1;whiteSpace=wrap;rhombus;fontSize=16.7;fontColor=#333333;spacing=3.8;strokeColor=#5e5e5e;strokeOpacity=100;rounded=1;absoluteArcSize=1;arcSize=9;strokeWidth=2.3;" parent="1" vertex="1">
            <mxGeometry x="830" y="780" width="165" height="120" as="geometry" />
          </mxCell>
        </UserObject>
        <UserObject label="" lucidchartObjectId="dMTOZXI6a72R" id="SzY6kasAF2Rzf1Wxw6PO-9">
          <mxCell style="html=1;jettySize=18;whiteSpace=wrap;fontSize=13;strokeColor=#5E5E5E;strokeWidth=1.5;rounded=1;arcSize=12;edgeStyle=orthogonalEdgeStyle;startArrow=none;endArrow=block;endFill=1;exitX=1.009;exitY=0.5;exitPerimeter=0;entryX=0.007;entryY=0.5;entryPerimeter=0;" parent="1" source="SzY6kasAF2Rzf1Wxw6PO-7" target="SzY6kasAF2Rzf1Wxw6PO-8" edge="1">
            <mxGeometry width="100" height="100" relative="1" as="geometry">
              <Array as="points" />
            </mxGeometry>
          </mxCell>
        </UserObject>
        <mxCell id="SzY6kasAF2Rzf1Wxw6PO-45" style="edgeStyle=orthogonalEdgeStyle;rounded=0;orthogonalLoop=1;jettySize=auto;html=1;entryX=0.5;entryY=1;entryDx=0;entryDy=0;exitX=1;exitY=0.5;exitDx=0;exitDy=0;" parent="1" source="SzY6kasAF2Rzf1Wxw6PO-10" target="SzY6kasAF2Rzf1Wxw6PO-43" edge="1">
          <mxGeometry relative="1" as="geometry" />
        </mxCell>
        <UserObject label="Input data:&#xa;-Amount&#xa;-Description&#xa;-Date" lucidchartObjectId="dMTOf6792g9T" id="SzY6kasAF2Rzf1Wxw6PO-10">
          <mxCell style="html=1;overflow=block;blockSpacing=1;whiteSpace=wrap;shape=document;boundedLbl=1;fontSize=16.7;fontColor=#333333;align=left;spacing=3.8;verticalAlign=middle;strokeColor=#5e5e5e;strokeOpacity=100;rounded=1;absoluteArcSize=1;arcSize=9;strokeWidth=2.3;" parent="1" vertex="1">
            <mxGeometry x="1020" y="780" width="120" height="120" as="geometry" />
          </mxCell>
        </UserObject>
        <UserObject label="" lucidchartObjectId="dMTOfv_h0-Ev" id="SzY6kasAF2Rzf1Wxw6PO-11">
          <mxCell style="html=1;jettySize=18;whiteSpace=wrap;fontSize=13;strokeColor=#5E5E5E;strokeWidth=1.5;rounded=1;arcSize=12;edgeStyle=orthogonalEdgeStyle;startArrow=none;endArrow=block;endFill=1;exitX=0.993;exitY=0.5;exitPerimeter=0;entryX=-0.009;entryY=0.5;entryPerimeter=0;" parent="1" source="SzY6kasAF2Rzf1Wxw6PO-8" target="SzY6kasAF2Rzf1Wxw6PO-10" edge="1">
            <mxGeometry width="100" height="100" relative="1" as="geometry">
              <Array as="points" />
            </mxGeometry>
          </mxCell>
        </UserObject>
        <UserObject label="Database" lucidchartObjectId="dMTOH8Th3tjM" id="SzY6kasAF2Rzf1Wxw6PO-13">
          <mxCell style="html=1;overflow=block;blockSpacing=1;whiteSpace=wrap;shape=cylinder3;size=4;anchorPointDirection=0;boundedLbl=1;fontSize=16.7;fontColor=#333333;spacing=3.8;strokeColor=#5e5e5e;strokeOpacity=100;rounded=1;absoluteArcSize=1;arcSize=9;strokeWidth=2.3;" parent="1" vertex="1">
            <mxGeometry x="890" y="480" width="90" height="90" as="geometry" />
          </mxCell>
        </UserObject>
        <UserObject label="" lucidchartObjectId="yNTOYJtON-qC" id="SzY6kasAF2Rzf1Wxw6PO-16">
          <mxCell style="html=1;jettySize=18;whiteSpace=wrap;fontSize=13;strokeColor=#5E5E5E;strokeWidth=1.5;rounded=1;arcSize=12;edgeStyle=orthogonalEdgeStyle;startArrow=none;endArrow=block;endFill=1;exitX=0.5;exitY=-0.012;exitPerimeter=0;entryX=0.5;entryY=1.013;entryPerimeter=0;" parent="1" source="SzY6kasAF2Rzf1Wxw6PO-1" target="SzY6kasAF2Rzf1Wxw6PO-2" edge="1">
            <mxGeometry width="100" height="100" relative="1" as="geometry">
              <Array as="points" />
            </mxGeometry>
          </mxCell>
        </UserObject>
        <UserObject label="Validate&#xa;Account" lucidchartObjectId="8NTOZmDcZI7K" id="SzY6kasAF2Rzf1Wxw6PO-17">
          <mxCell style="html=1;overflow=block;blockSpacing=1;whiteSpace=wrap;rhombus;fontSize=16.7;fontColor=#333333;spacing=3.8;strokeColor=#5e5e5e;strokeOpacity=100;rounded=1;absoluteArcSize=1;arcSize=9;strokeWidth=2.3;" parent="1" vertex="1">
            <mxGeometry x="350" y="570" width="120" height="90" as="geometry" />
          </mxCell>
        </UserObject>
        <UserObject label="" lucidchartObjectId="cOTOrkCGjoyi" id="SzY6kasAF2Rzf1Wxw6PO-18">
          <mxCell style="html=1;jettySize=18;whiteSpace=wrap;fontSize=13;strokeColor=#5E5E5E;strokeWidth=1.5;rounded=1;arcSize=12;edgeStyle=orthogonalEdgeStyle;startArrow=none;endArrow=block;endFill=1;exitX=1.009;exitY=0.5;exitPerimeter=0;entryX=0.009;entryY=0.499;entryPerimeter=0;" parent="1" source="SzY6kasAF2Rzf1Wxw6PO-2" target="SzY6kasAF2Rzf1Wxw6PO-17" edge="1">
            <mxGeometry width="100" height="100" relative="1" as="geometry">
              <Array as="points" />
            </mxGeometry>
          </mxCell>
        </UserObject>
        <UserObject label="" lucidchartObjectId="fOTOhjqRSpq9" id="SzY6kasAF2Rzf1Wxw6PO-19">
          <mxCell style="html=1;jettySize=18;whiteSpace=wrap;fontSize=13;strokeColor=#5E5E5E;strokeWidth=1.5;rounded=1;arcSize=12;edgeStyle=orthogonalEdgeStyle;startArrow=none;endArrow=block;endFill=1;exitX=0.5;exitY=-0.012;exitPerimeter=0;entryX=0.5;entryY=0.994;entryPerimeter=0;" parent="1" source="SzY6kasAF2Rzf1Wxw6PO-3" target="SzY6kasAF2Rzf1Wxw6PO-17" edge="1">
            <mxGeometry width="100" height="100" relative="1" as="geometry">
              <Array as="points" />
            </mxGeometry>
          </mxCell>
        </UserObject>
        <UserObject label="Failed Message" lucidchartObjectId="BOTOHcHDEc_k" id="SzY6kasAF2Rzf1Wxw6PO-20">
          <mxCell style="html=1;overflow=block;blockSpacing=1;whiteSpace=wrap;rounded=1;arcSize=50;fontSize=16.7;fontColor=#333333;spacing=3.8;strokeColor=#5e5e5e;strokeOpacity=100;strokeWidth=2.3;" parent="1" vertex="1">
            <mxGeometry x="200" y="450" width="120" height="60" as="geometry" />
          </mxCell>
        </UserObject>
        <UserObject label="" lucidchartObjectId="2OTOIFIpQD16" id="SzY6kasAF2Rzf1Wxw6PO-21">
          <mxCell style="html=1;jettySize=18;whiteSpace=wrap;fontSize=13.3;fontColor=#333333;fontStyle=1;strokeColor=#5E5E5E;strokeWidth=1.5;rounded=1;arcSize=12;edgeStyle=orthogonalEdgeStyle;startArrow=none;endArrow=block;endFill=1;exitX=0.991;exitY=0.5;exitPerimeter=0;entryX=0.009;entryY=0.5;entryPerimeter=0;" parent="1" source="SzY6kasAF2Rzf1Wxw6PO-17" target="SzY6kasAF2Rzf1Wxw6PO-5" edge="1">
            <mxGeometry width="100" height="100" relative="1" as="geometry">
              <Array as="points" />
            </mxGeometry>
          </mxCell>
        </UserObject>
        <mxCell id="SzY6kasAF2Rzf1Wxw6PO-22" value="Yes" style="text;html=1;resizable=0;labelBackgroundColor=default;align=center;verticalAlign=middle;fontStyle=1;fontColor=#333333;fontSize=13.3;" parent="SzY6kasAF2Rzf1Wxw6PO-21" vertex="1">
          <mxGeometry relative="1" as="geometry" />
        </mxCell>
        <UserObject label="" lucidchartObjectId="sPTONvj6czt7" id="SzY6kasAF2Rzf1Wxw6PO-23">
          <mxCell style="html=1;jettySize=18;whiteSpace=wrap;fontSize=13.3;fontColor=#333333;fontStyle=1;strokeColor=#5E5E5E;strokeWidth=1.5;rounded=1;arcSize=12;edgeStyle=orthogonalEdgeStyle;startArrow=none;endArrow=block;endFill=1;exitX=0.5;exitY=0.006;exitPerimeter=0;entryX=1.009;entryY=0.5;entryPerimeter=0;" parent="1" source="SzY6kasAF2Rzf1Wxw6PO-17" target="SzY6kasAF2Rzf1Wxw6PO-20" edge="1">
            <mxGeometry width="100" height="100" relative="1" as="geometry">
              <Array as="points">
                <mxPoint x="410" y="480" />
              </Array>
            </mxGeometry>
          </mxCell>
        </UserObject>
        <mxCell id="SzY6kasAF2Rzf1Wxw6PO-24" value="No" style="text;html=1;resizable=0;labelBackgroundColor=default;align=center;verticalAlign=middle;fontStyle=1;fontColor=#333333;fontSize=13.3;" parent="SzY6kasAF2Rzf1Wxw6PO-23" vertex="1">
          <mxGeometry relative="1" as="geometry" />
        </mxCell>
        <UserObject label="" lucidchartObjectId="nQTOV9lHobRi" id="SzY6kasAF2Rzf1Wxw6PO-25">
          <mxCell style="html=1;jettySize=18;whiteSpace=wrap;fontSize=13.3;fontColor=#333333;fontStyle=1;strokeColor=#5E5E5E;strokeWidth=1.5;rounded=1;arcSize=12;edgeStyle=orthogonalEdgeStyle;startArrow=none;endArrow=block;endFill=1;exitX=0.991;exitY=0.5;exitPerimeter=0;entryX=0.001;entryY=0.5;entryPerimeter=0;" parent="1" source="SzY6kasAF2Rzf1Wxw6PO-5" target="SzY6kasAF2Rzf1Wxw6PO-27" edge="1">
            <mxGeometry width="100" height="100" relative="1" as="geometry">
              <Array as="points" />
            </mxGeometry>
          </mxCell>
        </UserObject>
        <mxCell id="SzY6kasAF2Rzf1Wxw6PO-26" value="Yes" style="text;html=1;resizable=0;labelBackgroundColor=default;align=center;verticalAlign=middle;fontStyle=1;fontColor=#333333;fontSize=13.3;" parent="SzY6kasAF2Rzf1Wxw6PO-25" vertex="1">
          <mxGeometry relative="1" as="geometry" />
        </mxCell>
        <UserObject label="Home Page.&#xa;User Data&#xa;Record" lucidchartObjectId="KTTOviDd0zJa" id="SzY6kasAF2Rzf1Wxw6PO-27">
          <mxCell style="html=1;overflow=block;blockSpacing=1;whiteSpace=wrap;shape=display;fontSize=16.7;fontColor=#333333;spacing=3.8;strokeColor=#5e5e5e;strokeOpacity=100;fillOpacity=100;rounded=1;absoluteArcSize=1;arcSize=9;fillColor=#f9d2de;strokeWidth=2.3;" parent="1" vertex="1">
            <mxGeometry x="665" y="570" width="120" height="90" as="geometry" />
          </mxCell>
        </UserObject>
        <UserObject label="Add Account&#xa;Button" lucidchartObjectId="QWTOJl4oX4Gr" id="SzY6kasAF2Rzf1Wxw6PO-31">
          <mxCell style="html=1;overflow=block;blockSpacing=1;whiteSpace=wrap;fontSize=16.7;fontColor=#333333;spacing=9;strokeColor=#5e5e5e;strokeOpacity=100;fillOpacity=100;rounded=1;absoluteArcSize=1;arcSize=9;fillColor=#99d2f2;strokeWidth=2.3;" parent="1" vertex="1">
            <mxGeometry x="665" y="330" width="120" height="90" as="geometry" />
          </mxCell>
        </UserObject>
        <UserObject label="" lucidchartObjectId="XWTO.-Y2pg9b" id="SzY6kasAF2Rzf1Wxw6PO-33">
          <mxCell style="html=1;jettySize=18;whiteSpace=wrap;fontSize=13;strokeColor=#5E5E5E;strokeWidth=1.5;rounded=1;arcSize=12;edgeStyle=orthogonalEdgeStyle;startArrow=none;endArrow=block;endFill=1;exitX=0.503;exitY=-0.012;exitPerimeter=0;entryX=0.503;entryY=1.013;entryPerimeter=0;" parent="1" source="SzY6kasAF2Rzf1Wxw6PO-27" target="SzY6kasAF2Rzf1Wxw6PO-31" edge="1">
            <mxGeometry width="100" height="100" relative="1" as="geometry">
              <Array as="points" />
            </mxGeometry>
          </mxCell>
        </UserObject>
        <UserObject label="" lucidchartObjectId="f0TOLUMtUnKF" id="SzY6kasAF2Rzf1Wxw6PO-36">
          <mxCell style="html=1;jettySize=18;whiteSpace=wrap;fontSize=13;strokeColor=#5E5E5E;strokeWidth=1.5;rounded=1;arcSize=12;edgeStyle=orthogonalEdgeStyle;startArrow=none;endArrow=block;endFill=1;exitX=1.009;exitY=0.5;exitPerimeter=0;entryX=0.007;entryY=0.5;entryPerimeter=0;" parent="1" edge="1">
            <mxGeometry width="100" height="100" relative="1" as="geometry">
              <Array as="points" />
              <mxPoint x="1341.1550000000002" y="765" as="targetPoint" />
            </mxGeometry>
          </mxCell>
        </UserObject>
        <UserObject label="" lucidchartObjectId="M1TOm2~Z9tSv" id="SzY6kasAF2Rzf1Wxw6PO-37">
          <mxCell style="html=1;jettySize=18;whiteSpace=wrap;fontSize=13;strokeColor=#5E5E5E;strokeWidth=1.5;rounded=1;arcSize=12;edgeStyle=orthogonalEdgeStyle;startArrow=none;endArrow=block;endFill=1;exitX=1.009;exitY=0.5;exitPerimeter=0;entryX=0;entryY=0.5;entryDx=0;entryDy=0;" parent="1" source="SzY6kasAF2Rzf1Wxw6PO-31" target="SzY6kasAF2Rzf1Wxw6PO-38" edge="1">
            <mxGeometry width="100" height="100" relative="1" as="geometry">
              <Array as="points" />
              <mxPoint x="851" y="465" as="targetPoint" />
            </mxGeometry>
          </mxCell>
        </UserObject>
        <mxCell id="SzY6kasAF2Rzf1Wxw6PO-44" style="edgeStyle=orthogonalEdgeStyle;rounded=0;orthogonalLoop=1;jettySize=auto;html=1;entryX=0.5;entryY=0;entryDx=0;entryDy=0;" parent="1" source="SzY6kasAF2Rzf1Wxw6PO-38" target="SzY6kasAF2Rzf1Wxw6PO-43" edge="1">
          <mxGeometry relative="1" as="geometry" />
        </mxCell>
        <UserObject label="Input data:&#xa;- Card Name&#xa;- Colore" lucidchartObjectId="C1TOp3ZpiUUS" id="SzY6kasAF2Rzf1Wxw6PO-38">
          <mxCell style="html=1;overflow=block;blockSpacing=1;whiteSpace=wrap;shape=document;boundedLbl=1;fontSize=16.7;fontColor=#333333;align=left;spacing=3.8;verticalAlign=middle;strokeColor=#5e5e5e;strokeOpacity=100;rounded=1;absoluteArcSize=1;arcSize=9;strokeWidth=2.3;" parent="1" vertex="1">
            <mxGeometry x="852.5" y="330" width="120" height="90" as="geometry" />
          </mxCell>
        </UserObject>
        <mxCell id="SzY6kasAF2Rzf1Wxw6PO-47" style="edgeStyle=orthogonalEdgeStyle;rounded=0;orthogonalLoop=1;jettySize=auto;html=1;entryX=1;entryY=0.5;entryDx=0;entryDy=0;entryPerimeter=0;exitX=0.5;exitY=0;exitDx=0;exitDy=0;" parent="1" source="SzY6kasAF2Rzf1Wxw6PO-42" target="SzY6kasAF2Rzf1Wxw6PO-13" edge="1">
          <mxGeometry relative="1" as="geometry" />
        </mxCell>
        <mxCell id="SzY6kasAF2Rzf1Wxw6PO-48" value="Yes" style="edgeLabel;html=1;align=center;verticalAlign=middle;resizable=0;points=[];" parent="SzY6kasAF2Rzf1Wxw6PO-47" vertex="1" connectable="0">
          <mxGeometry x="-0.0845" y="1" relative="1" as="geometry">
            <mxPoint x="-10" y="-1" as="offset" />
          </mxGeometry>
        </mxCell>
        <mxCell id="SzY6kasAF2Rzf1Wxw6PO-49" style="edgeStyle=orthogonalEdgeStyle;rounded=0;orthogonalLoop=1;jettySize=auto;html=1;entryX=1;entryY=0.5;entryDx=0;entryDy=0;entryPerimeter=0;" parent="1" source="SzY6kasAF2Rzf1Wxw6PO-42" target="SzY6kasAF2Rzf1Wxw6PO-27" edge="1">
          <mxGeometry relative="1" as="geometry" />
        </mxCell>
        <mxCell id="SzY6kasAF2Rzf1Wxw6PO-50" value="No" style="edgeLabel;html=1;align=center;verticalAlign=middle;resizable=0;points=[];" parent="SzY6kasAF2Rzf1Wxw6PO-49" vertex="1" connectable="0">
          <mxGeometry x="-0.2851" y="3" relative="1" as="geometry">
            <mxPoint as="offset" />
          </mxGeometry>
        </mxCell>
        <UserObject label="If Save" lucidchartObjectId="dMTOo~aPDW02" id="SzY6kasAF2Rzf1Wxw6PO-42">
          <mxCell style="html=1;overflow=block;blockSpacing=1;whiteSpace=wrap;rhombus;fontSize=16.7;fontColor=#333333;spacing=3.8;strokeColor=#5e5e5e;strokeOpacity=100;rounded=1;absoluteArcSize=1;arcSize=9;strokeWidth=2.3;" parent="1" vertex="1">
            <mxGeometry x="1020" y="555" width="165" height="120" as="geometry" />
          </mxCell>
        </UserObject>
        <mxCell id="SzY6kasAF2Rzf1Wxw6PO-46" style="edgeStyle=orthogonalEdgeStyle;rounded=0;orthogonalLoop=1;jettySize=auto;html=1;" parent="1" source="SzY6kasAF2Rzf1Wxw6PO-43" target="SzY6kasAF2Rzf1Wxw6PO-42" edge="1">
          <mxGeometry relative="1" as="geometry" />
        </mxCell>
        <UserObject label="Save &#xa;Button" lucidchartObjectId="QZTOes9xW5Se" id="SzY6kasAF2Rzf1Wxw6PO-43">
          <mxCell style="html=1;overflow=block;blockSpacing=1;whiteSpace=wrap;fontSize=16.7;fontColor=#333333;spacing=9;strokeColor=#5e5e5e;strokeOpacity=100;fillOpacity=100;rounded=1;absoluteArcSize=1;arcSize=9;fillColor=#99d2f2;strokeWidth=2.3;" parent="1" vertex="1">
            <mxGeometry x="1275" y="570" width="120" height="90" as="geometry" />
          </mxCell>
        </UserObject>
      </root>
    </mxGraphModel>
  </diagram>
</mxfile>
